<svg xmlns="http://www.w3.org/2000/svg" width="48" height="48" fill="none" viewBox="0 0 48 48"><g clip-path="url(#clip0_1503_1280)"><path stroke="#4640DE" stroke-linecap="round" stroke-linejoin="round" stroke-width="3" d="M6 42.0001H14L40 16.0001C41.0609 14.9393 41.6569 13.5004 41.6569 12.0001C41.6569 10.4998 41.0609 9.06098 40 8.00012C38.9391 6.93925 37.5003 6.34326 36 6.34326C34.4997 6.34326 33.0609 6.93925 32 8.00012L6 34.0001V42.0001Z"/><path stroke="#4640DE" stroke-linecap="round" stroke-linejoin="round" stroke-width="3" d="M29 11L37 19"/><path stroke="#4640DE" stroke-linecap="round" stroke-linejoin="round" stroke-width="3" d="M24 16L14 6L6 14L16 24"/><path stroke="#4640DE" stroke-linecap="round" stroke-linejoin="round" stroke-width="3" d="M14 16L11 19"/><path stroke="#4640DE" stroke-linecap="round" stroke-linejoin="round" stroke-width="3" d="M32 24L42 34L34 42L24 32"/><path stroke="#4640DE" stroke-linecap="round" stroke-linejoin="round" stroke-width="3" d="M32 34L29 37"/></g><defs><clipPath id="clip0_1503_1280"><rect width="48" height="48" fill="#fff"/></clipPath></defs></svg>